G04*
G04 #@! TF.GenerationSoftware,Altium Limited,Altium Designer,21.7.2 (23)*
G04*
G04 Layer_Color=8421504*
%FSLAX25Y25*%
%MOIN*%
G70*
G04*
G04 #@! TF.SameCoordinates,6DFCDF27-08A9-4E5E-AB17-D276871F0FC1*
G04*
G04*
G04 #@! TF.FilePolarity,Positive*
G04*
G01*
G75*
%ADD14R,0.05421X0.04459*%
%ADD15R,0.04724X0.13780*%
G36*
X242806Y96230D02*
Y91702D01*
X242609Y91505D01*
X240956Y91505D01*
Y93257D01*
X239184D01*
Y91525D01*
X237570Y91505D01*
X237373Y91702D01*
Y96230D01*
X237570Y96426D01*
X242609D01*
X242806Y96230D01*
D02*
G37*
G36*
X239184Y86210D02*
X240956D01*
Y87942D01*
X242609Y87962D01*
X242806Y87765D01*
Y83237D01*
X242609Y83041D01*
X237570D01*
X237373Y83237D01*
Y87765D01*
X237570Y87962D01*
X239184Y87982D01*
Y86210D01*
D02*
G37*
G36*
X242806Y75730D02*
Y71202D01*
X242609Y71005D01*
X240956Y71005D01*
Y72757D01*
X239184D01*
Y71025D01*
X237570Y71005D01*
X237373Y71202D01*
Y75730D01*
X237570Y75927D01*
X242609D01*
X242806Y75730D01*
D02*
G37*
G36*
X239184Y65710D02*
X240956D01*
Y67442D01*
X242609Y67462D01*
X242806Y67265D01*
Y62738D01*
X242609Y62541D01*
X237570D01*
X237373Y62738D01*
Y67265D01*
X237570Y67462D01*
X239184Y67482D01*
Y65710D01*
D02*
G37*
G36*
X350127Y63262D02*
Y58735D01*
X349930Y58538D01*
X348316Y58518D01*
Y60290D01*
X346544D01*
Y58558D01*
X344891Y58538D01*
X344694Y58735D01*
Y63262D01*
X344891Y63459D01*
X349930D01*
X350127Y63262D01*
D02*
G37*
G36*
Y54798D02*
Y50270D01*
X349930Y50073D01*
X344891D01*
X344694Y50270D01*
Y54798D01*
X344891Y54995D01*
X346544Y54995D01*
Y53243D01*
X348316D01*
Y54975D01*
X349930Y54995D01*
X350127Y54798D01*
D02*
G37*
D14*
X347411Y60571D02*
D03*
Y52962D02*
D03*
X240089Y65429D02*
D03*
Y73038D02*
D03*
Y85929D02*
D03*
Y93538D02*
D03*
D15*
X216000Y102012D02*
D03*
Y80988D02*
D03*
X63000Y58012D02*
D03*
Y36988D02*
D03*
M02*
