G04*
G04 #@! TF.GenerationSoftware,Altium Limited,Altium Designer,21.7.2 (23)*
G04*
G04 Layer_Color=65535*
%FSLAX25Y25*%
%MOIN*%
G70*
G04*
G04 #@! TF.SameCoordinates,6DFCDF27-08A9-4E5E-AB17-D276871F0FC1*
G04*
G04*
G04 #@! TF.FilePolarity,Positive*
G04*
G01*
G75*
%ADD10C,0.01000*%
%ADD11C,0.00600*%
%ADD12C,0.00800*%
%ADD13C,0.00799*%
G36*
X57413Y35287D02*
X56634D01*
Y38405D01*
X57413D01*
Y35287D01*
D02*
G37*
G36*
Y58543D02*
X59622D01*
Y57764D01*
X57413D01*
Y56595D01*
X56634D01*
Y57764D01*
X54425D01*
Y58543D01*
X56634D01*
Y59713D01*
X57413D01*
Y58543D01*
D02*
G37*
G36*
X210413Y102543D02*
X212622D01*
Y101764D01*
X210413D01*
Y100594D01*
X209634D01*
Y101764D01*
X207425D01*
Y102543D01*
X209634D01*
Y103713D01*
X210413D01*
Y102543D01*
D02*
G37*
G36*
Y79287D02*
X209634D01*
Y82406D01*
X210413D01*
Y79287D01*
D02*
G37*
D10*
X281610Y113500D02*
G03*
X295390Y113500I6890J0D01*
G01*
X182500Y-1500D02*
G03*
X192500Y8500I0J10000D01*
G01*
X92500D02*
G03*
X102500Y-1500I10000J-0D01*
G01*
X355770Y94723D02*
G03*
X338440Y94723I-8665J-3390D01*
G01*
Y85673D02*
G03*
X355770Y84883I8820J3008D01*
G01*
X234000Y36000D02*
Y56000D01*
X244000D01*
Y36000D02*
Y56000D01*
X234000Y36000D02*
X244000D01*
X28000Y40000D02*
X38000D01*
Y20000D02*
Y40000D01*
X28000Y20000D02*
Y40000D01*
Y20000D02*
X38000D01*
X28000Y65500D02*
X38000D01*
Y45500D02*
Y65500D01*
X28000Y45500D02*
Y65500D01*
Y45500D02*
X38000D01*
X295390Y113500D02*
X330823D01*
Y31807D02*
Y113500D01*
X249130Y31807D02*
X330823D01*
X249130D02*
Y113500D01*
X281610D01*
X262910Y32791D02*
Y93815D01*
X317043D01*
Y32791D02*
Y93815D01*
X169500Y-1500D02*
Y26500D01*
X115500Y-1500D02*
Y26500D01*
X102500Y-1500D02*
X182500D01*
X115500Y26500D02*
X169500D01*
X192500Y8680D02*
Y103680D01*
X169500Y26500D02*
Y91500D01*
X187500Y108500D02*
Y128500D01*
Y108680D02*
X192500Y103680D01*
X187500Y108680D02*
Y133680D01*
X172500Y128500D02*
X187500D01*
X172500Y108500D02*
X187500D01*
X172500D02*
Y128500D01*
X115500Y26500D02*
Y91500D01*
X169500D01*
X92500Y8680D02*
Y133680D01*
X157500Y113500D02*
Y133500D01*
X127500Y113500D02*
X157500D01*
X127500Y133500D02*
X157500D01*
X92500Y133680D02*
X187500D01*
X127500Y113500D02*
Y133500D01*
X348681Y92756D02*
X350650D01*
X352618D02*
X355768D01*
X346319Y86851D02*
Y92756D01*
X348681Y86851D02*
Y92756D01*
X355768Y84882D02*
Y94725D01*
X352618Y86457D02*
Y92756D01*
X350650Y86457D02*
Y92756D01*
Y86457D02*
X352618D01*
X343563Y92756D02*
X346319D01*
X341201Y86851D02*
X343563D01*
X338445Y92756D02*
X341201D01*
Y86851D02*
Y92756D01*
X338445Y85669D02*
Y94725D01*
X343563Y86851D02*
Y92756D01*
X57045Y79029D02*
X65217D01*
X34902D02*
Y120840D01*
X65217Y79029D02*
Y135723D01*
X60098Y79029D02*
Y120840D01*
X29784Y135723D02*
X65217Y135723D01*
X29784Y121155D02*
X65217D01*
X29784Y102710D02*
Y135723D01*
Y79029D02*
X37955D01*
X29784D02*
Y82910D01*
D11*
X351021Y58641D02*
Y63700D01*
X343800D02*
X351021D01*
X343800Y58641D02*
Y63700D01*
X351021Y49833D02*
Y54892D01*
X343800Y49833D02*
X351021D01*
X343800D02*
Y54892D01*
X236479Y62300D02*
Y67359D01*
Y62300D02*
X243700D01*
Y67359D01*
X236479Y71108D02*
Y76167D01*
X243700D01*
Y71108D02*
Y76167D01*
X236479Y82800D02*
Y87859D01*
Y82800D02*
X243700D01*
Y87859D01*
X236479Y91608D02*
Y96667D01*
X243700D01*
Y91608D02*
Y96667D01*
X218700Y104792D02*
X223795D01*
X229292Y99295D01*
Y78208D02*
Y99295D01*
X218786Y78234D02*
X229292Y78208D01*
X208200Y104790D02*
X213300Y104737D01*
X202710Y99300D02*
X208200Y104790D01*
X202710Y78210D02*
Y99300D01*
Y78210D02*
X213089Y78289D01*
X65700Y60792D02*
X70795D01*
X76292Y55295D01*
Y34208D02*
Y55295D01*
X65786Y34234D02*
X76292Y34208D01*
X55200Y60790D02*
X60300Y60737D01*
X49710Y55300D02*
X55200Y60790D01*
X49710Y34210D02*
Y55300D01*
Y34210D02*
X60089Y34289D01*
X154900Y51143D02*
Y54343D01*
X153300D01*
X152767Y53809D01*
Y51677D01*
X153300Y51143D01*
X154900D01*
X151701Y54343D02*
X150635D01*
X151168D01*
Y51143D01*
X151701Y51677D01*
X142637Y54343D02*
Y52210D01*
X142104D01*
X141571Y52743D01*
Y54343D01*
Y52743D01*
X141038Y52210D01*
X140505Y52743D01*
Y54343D01*
X139438D02*
X138372D01*
X138905D01*
Y52210D01*
X139438D01*
X136773Y54343D02*
Y52210D01*
X135173D01*
X134640Y52743D01*
Y54343D01*
X133574D02*
X132507D01*
X133040D01*
Y52210D01*
X133574D01*
X151701Y56422D02*
Y58555D01*
X150635Y59621D01*
X149568Y58555D01*
Y56422D01*
X146369Y59621D02*
X148502D01*
X146369Y57489D01*
Y56955D01*
X146903Y56422D01*
X147969D01*
X148502Y56955D01*
X145303Y59621D02*
Y59088D01*
X144770D01*
Y59621D01*
X145303D01*
X142637Y56955D02*
X142104Y56422D01*
X141038D01*
X140505Y56955D01*
Y57489D01*
X141038Y58022D01*
X141571D01*
X141038D01*
X140505Y58555D01*
Y59088D01*
X141038Y59621D01*
X142104D01*
X142637Y59088D01*
X139438Y59621D02*
Y59088D01*
X138905D01*
Y59621D01*
X139438D01*
X136773Y56955D02*
X136239Y56422D01*
X135173D01*
X134640Y56955D01*
Y59088D01*
X135173Y59621D01*
X136239D01*
X136773Y59088D01*
Y56955D01*
X154900Y61701D02*
Y64900D01*
X153834Y63834D01*
X152767Y64900D01*
Y61701D01*
X149568D02*
X151701D01*
Y64900D01*
X149568D01*
X151701Y63301D02*
X150635D01*
X148502Y64900D02*
Y61701D01*
X147436Y62767D01*
X146369Y61701D01*
Y64900D01*
X143704Y61701D02*
X144770D01*
X145303Y62234D01*
Y64367D01*
X144770Y64900D01*
X143704D01*
X143170Y64367D01*
Y62234D01*
X143704Y61701D01*
X139971Y62234D02*
X140505Y61701D01*
X141571D01*
X142104Y62234D01*
Y62767D01*
X141571Y63301D01*
X140505D01*
X139971Y63834D01*
Y64367D01*
X140505Y64900D01*
X141571D01*
X142104Y64367D01*
X138905Y64900D02*
Y64367D01*
X138372D01*
Y64900D01*
X138905D01*
X134107Y62234D02*
X134640Y61701D01*
X135706D01*
X136239Y62234D01*
Y64367D01*
X135706Y64900D01*
X134640D01*
X134107Y64367D01*
X130908Y62234D02*
X131441Y61701D01*
X132507D01*
X133040Y62234D01*
Y64367D01*
X132507Y64900D01*
X131441D01*
X130908Y64367D01*
X181639Y126400D02*
X184638D01*
Y124900D01*
X184138Y124401D01*
X183138D01*
X182639Y124900D01*
Y126400D01*
Y125400D02*
X181639Y124401D01*
X184638Y121402D02*
Y123401D01*
X181639D01*
Y121402D01*
X183138Y123401D02*
Y122401D01*
X184138Y118403D02*
X184638Y118902D01*
Y119902D01*
X184138Y120402D01*
X183638D01*
X183138Y119902D01*
Y118902D01*
X182639Y118403D01*
X182139D01*
X181639Y118902D01*
Y119902D01*
X182139Y120402D01*
X184638Y115404D02*
Y117403D01*
X181639D01*
Y115404D01*
X183138Y117403D02*
Y116403D01*
X184638Y114404D02*
Y112405D01*
Y113404D01*
X181639D01*
X179099Y124401D02*
X179599Y124900D01*
Y125900D01*
X179099Y126400D01*
X178599D01*
X178100Y125900D01*
Y124900D01*
X177600Y124401D01*
X177100D01*
X176600Y124900D01*
Y125900D01*
X177100Y126400D01*
X179599Y123401D02*
X176600D01*
X177600Y122401D01*
X176600Y121402D01*
X179599D01*
Y120402D02*
Y119402D01*
Y119902D01*
X176600D01*
Y120402D01*
Y119402D01*
X179599Y117903D02*
Y115903D01*
Y116903D01*
X176600D01*
X179099Y112904D02*
X179599Y113404D01*
Y114404D01*
X179099Y114904D01*
X177100D01*
X176600Y114404D01*
Y113404D01*
X177100Y112904D01*
X179599Y111905D02*
X176600D01*
X178100D01*
Y109905D01*
X179599D01*
X176600D01*
X155900Y18900D02*
Y16234D01*
X154567Y14901D01*
X153234Y16234D01*
Y18900D01*
Y16901D01*
X155900D01*
X151901Y18900D02*
Y14901D01*
X149235Y18900D01*
Y14901D01*
X147903D02*
X145237D01*
X146570D01*
Y18900D01*
X141238Y14901D02*
X143904D01*
Y18900D01*
X141238D01*
X143904Y16901D02*
X142571D01*
X139905Y18900D02*
Y14901D01*
X137239Y18900D01*
Y14901D01*
X135906Y18900D02*
Y14901D01*
X133241Y18900D01*
Y14901D01*
X131908Y18900D02*
Y16234D01*
X130575Y14901D01*
X129242Y16234D01*
Y18900D01*
Y16901D01*
X131908D01*
X179500Y40180D02*
Y38181D01*
X178500Y37181D01*
X177501Y38181D01*
Y40180D01*
Y38680D01*
X179500D01*
X176501Y37681D02*
X176001Y37181D01*
X175001D01*
X174502Y37681D01*
Y39680D01*
X175001Y40180D01*
X176001D01*
X176501Y39680D01*
Y37681D01*
X179500Y30180D02*
Y27181D01*
X178000D01*
X177501Y27681D01*
Y28681D01*
X178000Y29180D01*
X179500D01*
X178500D02*
X177501Y30180D01*
X174502Y27681D02*
X175001Y27181D01*
X176001D01*
X176501Y27681D01*
Y28181D01*
X176001Y28681D01*
X175001D01*
X174502Y29180D01*
Y29680D01*
X175001Y30180D01*
X176001D01*
X176501Y29680D01*
X173502Y27181D02*
X171503D01*
X172502D01*
Y30180D01*
X179500Y67181D02*
Y70180D01*
X178000D01*
X177501Y69680D01*
Y67681D01*
X178000Y67181D01*
X179500D01*
X174502D02*
X175501Y67681D01*
X176501Y68681D01*
Y69680D01*
X176001Y70180D01*
X175001D01*
X174502Y69680D01*
Y69180D01*
X175001Y68681D01*
X176501D01*
X179500Y77181D02*
Y80180D01*
X178000D01*
X177501Y79680D01*
Y77681D01*
X178000Y77181D01*
X179500D01*
X176501D02*
X174502D01*
Y77681D01*
X176501Y79680D01*
Y80180D01*
X179500Y57181D02*
Y60180D01*
X178000D01*
X177501Y59680D01*
Y57681D01*
X178000Y57181D01*
X179500D01*
X174502D02*
X176501D01*
Y58680D01*
X175501Y58181D01*
X175001D01*
X174502Y58680D01*
Y59680D01*
X175001Y60180D01*
X176001D01*
X176501Y59680D01*
X179500Y47181D02*
Y50180D01*
X178000D01*
X177501Y49680D01*
Y47681D01*
X178000Y47181D01*
X179500D01*
X176501Y47681D02*
X176001Y47181D01*
X175001D01*
X174502Y47681D01*
Y49680D01*
X175001Y50180D01*
X176001D01*
X176501Y49680D01*
Y47681D01*
X110500Y39820D02*
Y36821D01*
X109001D01*
X108501Y37321D01*
Y38320D01*
X109001Y38820D01*
X110500D01*
X109500D02*
X108501Y39820D01*
X107501Y36821D02*
X105502Y39820D01*
Y36821D02*
X107501Y39820D01*
X110500Y26821D02*
X108501D01*
X109500D01*
Y29820D01*
X107501Y26821D02*
X105502Y29820D01*
Y26821D02*
X107501Y29820D01*
X110500Y56821D02*
Y59820D01*
X109001D01*
X108501Y59320D01*
Y57321D01*
X109001Y56821D01*
X110500D01*
X105502Y59820D02*
X107501D01*
X105502Y57821D01*
Y57321D01*
X106001Y56821D01*
X107001D01*
X107501Y57321D01*
X109500Y46821D02*
Y49820D01*
X108001D01*
X107501Y49320D01*
Y47321D01*
X108001Y46821D01*
X109500D01*
X106501Y49820D02*
X105501D01*
X106001D01*
Y46821D01*
X106501Y47321D01*
X110500Y76821D02*
Y79820D01*
X109001D01*
X108501Y79320D01*
Y77321D01*
X109001Y76821D01*
X110500D01*
X106001Y79820D02*
Y76821D01*
X107501Y78320D01*
X105502D01*
X110500Y66821D02*
Y69820D01*
X109001D01*
X108501Y69320D01*
Y67321D01*
X109001Y66821D01*
X110500D01*
X107501Y67321D02*
X107001Y66821D01*
X106001D01*
X105502Y67321D01*
Y67821D01*
X106001Y68321D01*
X106501D01*
X106001D01*
X105502Y68820D01*
Y69320D01*
X106001Y69820D01*
X107001D01*
X107501Y69320D01*
X179500Y87181D02*
Y90180D01*
X178000D01*
X177501Y89680D01*
Y87681D01*
X178000Y87181D01*
X179500D01*
X176501Y87681D02*
X176001Y87181D01*
X175001D01*
X174502Y87681D01*
Y88181D01*
X175001Y88680D01*
X174502Y89180D01*
Y89680D01*
X175001Y90180D01*
X176001D01*
X176501Y89680D01*
Y89180D01*
X176001Y88680D01*
X176501Y88181D01*
Y87681D01*
X176001Y88680D02*
X175001D01*
X179500Y97681D02*
X179000Y97181D01*
X178000D01*
X177501Y97681D01*
Y98181D01*
X178000Y98681D01*
X178500D01*
X178000D01*
X177501Y99180D01*
Y99680D01*
X178000Y100180D01*
X179000D01*
X179500Y99680D01*
X176501Y97181D02*
Y99180D01*
X175501Y100180D01*
X174502Y99180D01*
Y97181D01*
X173502Y97681D02*
X173002Y97181D01*
X172002D01*
X171503Y97681D01*
Y98181D01*
X172002Y98681D01*
X172502D01*
X172002D01*
X171503Y99180D01*
Y99680D01*
X172002Y100180D01*
X173002D01*
X173502Y99680D01*
X111501Y87321D02*
X112001Y86821D01*
X113000D01*
X113500Y87321D01*
Y89320D01*
X113000Y89820D01*
X112001D01*
X111501Y89320D01*
Y88320D01*
X112500D01*
X110501Y89820D02*
Y86821D01*
X108502Y89820D01*
Y86821D01*
X107502D02*
Y89820D01*
X106002D01*
X105503Y89320D01*
Y87321D01*
X106002Y86821D01*
X107502D01*
X155400Y119901D02*
Y122400D01*
X154900Y122900D01*
X153901D01*
X153401Y122400D01*
Y119901D01*
X150402Y120401D02*
X150901Y119901D01*
X151901D01*
X152401Y120401D01*
Y120901D01*
X151901Y121400D01*
X150901D01*
X150402Y121900D01*
Y122400D01*
X150901Y122900D01*
X151901D01*
X152401Y122400D01*
X149402Y119901D02*
Y122900D01*
X147902D01*
X147403Y122400D01*
Y121900D01*
X147902Y121400D01*
X149402D01*
X147902D01*
X147403Y120901D01*
Y120401D01*
X147902Y119901D01*
X149402D01*
X143404Y122900D02*
Y119901D01*
X142404Y120901D01*
X141404Y119901D01*
Y122900D01*
X140405Y119901D02*
X139405D01*
X139905D01*
Y122900D01*
X140405D01*
X139405D01*
X135906Y120401D02*
X136406Y119901D01*
X137406D01*
X137906Y120401D01*
Y122400D01*
X137406Y122900D01*
X136406D01*
X135906Y122400D01*
X134907Y122900D02*
Y119901D01*
X133407D01*
X132907Y120401D01*
Y121400D01*
X133407Y121900D01*
X134907D01*
X133907D02*
X132907Y122900D01*
X130408Y119901D02*
X131408D01*
X131908Y120401D01*
Y122400D01*
X131408Y122900D01*
X130408D01*
X129908Y122400D01*
Y120401D01*
X130408Y119901D01*
X108501Y96821D02*
X110500D01*
Y98321D01*
X109500Y97821D01*
X109001D01*
X108501Y98321D01*
Y99320D01*
X109001Y99820D01*
X110000D01*
X110500Y99320D01*
X107501Y96821D02*
Y98820D01*
X106501Y99820D01*
X105502Y98820D01*
Y96821D01*
D12*
X204000Y117000D02*
Y127000D01*
X211500D01*
X204000Y117000D02*
X234000D01*
Y127000D01*
X237500Y117000D02*
Y127000D01*
X245000D01*
X237500Y117000D02*
X267500D01*
Y127000D01*
X271500Y117000D02*
Y127000D01*
X279000D01*
X271500Y117000D02*
X301500D01*
Y127000D01*
X309500Y17000D02*
Y27000D01*
X317000D01*
X309500Y17000D02*
X339500D01*
Y27000D01*
X300500Y17000D02*
Y27000D01*
X293000Y17000D02*
X300500D01*
X250500Y27000D02*
X300500D01*
X250500Y17000D02*
Y27000D01*
X71500Y70500D02*
X81500D01*
X71500D02*
Y78000D01*
X81500Y70500D02*
Y110500D01*
X71500D02*
X81500D01*
X202500Y17000D02*
Y27000D01*
X210000D01*
X202500Y17000D02*
X242500D01*
Y27000D01*
X271780Y104637D02*
Y100701D01*
X273748D01*
X274404Y101357D01*
Y103981D01*
X273748Y104637D01*
X271780D01*
X278340D02*
X275716D01*
Y102669D01*
X277028D01*
X275716D01*
Y100701D01*
X279651D02*
Y104637D01*
X281619D01*
X282275Y103981D01*
Y102669D01*
X281619Y102013D01*
X279651D01*
X283587Y100701D02*
X284899D01*
X284243D01*
Y104637D01*
X283587D01*
X287523Y103325D02*
X288835D01*
X289491Y102669D01*
Y100701D01*
X287523D01*
X286867Y101357D01*
X287523Y102013D01*
X289491D01*
X290803Y103325D02*
Y101357D01*
X291459Y100701D01*
X293426D01*
Y100046D01*
X292771Y99390D01*
X292115D01*
X293426Y100701D02*
Y103325D01*
X296706Y100701D02*
X295394D01*
X294738Y101357D01*
Y102669D01*
X295394Y103325D01*
X296706D01*
X297362Y102669D01*
Y102013D01*
X294738D01*
X298674Y103325D02*
Y100701D01*
Y102013D01*
X299330Y102669D01*
X299986Y103325D01*
X300642D01*
X306546Y100701D02*
Y104637D01*
X307857Y103325D01*
X309169Y104637D01*
Y100701D01*
X310481D02*
X311793D01*
X311137D01*
Y103325D01*
X310481D01*
X313761Y100701D02*
Y103325D01*
X315729D01*
X316385Y102669D01*
Y100701D01*
X317697D02*
X319009D01*
X318353D01*
Y103325D01*
X317697D01*
D13*
X211500Y127000D02*
X234000D01*
X245000D02*
X267500D01*
X279000D02*
X301500D01*
X317000Y27000D02*
X339500D01*
X250500Y17000D02*
X293000D01*
X71500Y78000D02*
Y110500D01*
X210000Y27000D02*
X242500D01*
M02*
