G04*
G04 #@! TF.GenerationSoftware,Altium Limited,Altium Designer,21.7.2 (23)*
G04*
G04 Layer_Color=255*
%FSLAX25Y25*%
%MOIN*%
G70*
G04*
G04 #@! TF.SameCoordinates,6DFCDF27-08A9-4E5E-AB17-D276871F0FC1*
G04*
G04*
G04 #@! TF.FilePolarity,Positive*
G04*
G01*
G75*
%ADD14R,0.05421X0.04459*%
%ADD15R,0.04724X0.13780*%
%ADD25C,0.07000*%
%ADD34C,0.07087*%
%ADD35R,0.07087X0.07087*%
%ADD36R,0.07000X0.07000*%
%ADD37R,0.12960X0.07200*%
%ADD38R,0.06200X0.07087*%
%ADD39C,0.06000*%
%ADD40C,0.06200*%
%ADD41R,0.06200X0.06200*%
%ADD42C,0.06693*%
%ADD43R,0.06693X0.06693*%
%ADD44R,0.06693X0.06693*%
%ADD45O,0.18110X0.07874*%
%ADD46O,0.07874X0.18110*%
D14*
X347411Y60571D02*
D03*
Y52962D02*
D03*
X240089Y65429D02*
D03*
Y73038D02*
D03*
Y85929D02*
D03*
Y93538D02*
D03*
D15*
X216000Y102012D02*
D03*
Y80988D02*
D03*
X63000Y58012D02*
D03*
Y36988D02*
D03*
D25*
X254500Y97500D02*
D03*
Y87500D02*
D03*
Y77500D02*
D03*
Y67500D02*
D03*
Y57500D02*
D03*
Y47500D02*
D03*
Y37500D02*
D03*
X324500Y107500D02*
D03*
Y97500D02*
D03*
Y87500D02*
D03*
Y77500D02*
D03*
Y67500D02*
D03*
Y57500D02*
D03*
Y47500D02*
D03*
Y37500D02*
D03*
D34*
X239000Y51000D02*
D03*
X33000Y25000D02*
D03*
Y50500D02*
D03*
X219000Y122000D02*
D03*
X229000D02*
D03*
X252500D02*
D03*
X262500D02*
D03*
X286500D02*
D03*
X296500D02*
D03*
X324500Y22000D02*
D03*
X334500D02*
D03*
D35*
X239000Y41000D02*
D03*
X33000Y35000D02*
D03*
Y60500D02*
D03*
D36*
X254500Y107500D02*
D03*
D37*
X187500Y28500D02*
D03*
Y48500D02*
D03*
Y38500D02*
D03*
Y58500D02*
D03*
Y68500D02*
D03*
X97500Y38500D02*
D03*
Y28500D02*
D03*
Y58500D02*
D03*
Y48500D02*
D03*
Y68500D02*
D03*
X187500Y88500D02*
D03*
Y78500D02*
D03*
Y98500D02*
D03*
X97500D02*
D03*
Y88500D02*
D03*
Y78500D02*
D03*
D38*
X209000Y122000D02*
D03*
X242500D02*
D03*
X276500D02*
D03*
X314500Y22000D02*
D03*
D39*
X347500Y96693D02*
D03*
Y83307D02*
D03*
D40*
X275500Y22000D02*
D03*
X285500D02*
D03*
X265500D02*
D03*
X255500D02*
D03*
D41*
X295500D02*
D03*
D42*
X76500Y85500D02*
D03*
Y95500D02*
D03*
Y105500D02*
D03*
X217500Y22000D02*
D03*
X227500D02*
D03*
X237500D02*
D03*
D43*
X76500Y75500D02*
D03*
D44*
X207500Y22000D02*
D03*
D45*
X47500Y105408D02*
D03*
Y81000D02*
D03*
D46*
X28995Y92810D02*
D03*
M02*
