G04*
G04 #@! TF.GenerationSoftware,Altium Limited,Altium Designer,21.7.2 (23)*
G04*
G04 Layer_Color=2752767*
%FSLAX25Y25*%
%MOIN*%
G70*
G04*
G04 #@! TF.SameCoordinates,6DFCDF27-08A9-4E5E-AB17-D276871F0FC1*
G04*
G04*
G04 #@! TF.FilePolarity,Positive*
G04*
G01*
G75*
%ADD48C,0.00200*%
%ADD49C,0.00267*%
D48*
X238200Y50200D02*
Y51800D01*
X239800D01*
Y50200D01*
X238200D01*
Y40200D02*
Y41800D01*
X239800D01*
Y40200D01*
X238200D01*
X32200Y34200D02*
Y35800D01*
X33800D01*
Y34200D01*
X32200D01*
Y24200D02*
Y25800D01*
X33800D01*
Y24200D01*
X32200D01*
Y59700D02*
Y61300D01*
X33800D01*
Y59700D01*
X32200D01*
Y49700D02*
Y51300D01*
X33800D01*
Y49700D01*
X32200D01*
X187500Y27700D02*
X186700Y29300D01*
X188300D01*
X187500Y27700D01*
Y47700D02*
X186700Y49300D01*
X188300D01*
X187500Y47700D01*
Y37700D02*
X186700Y39300D01*
X188300D01*
X187500Y37700D01*
Y57700D02*
X186700Y59300D01*
X188300D01*
X187500Y57700D01*
Y67700D02*
X186700Y69300D01*
X188300D01*
X187500Y67700D01*
X97500Y37700D02*
X96700Y39300D01*
X98300D01*
X97500Y37700D01*
Y27700D02*
X96700Y29300D01*
X98300D01*
X97500Y27700D01*
Y57700D02*
X96700Y59300D01*
X98300D01*
X97500Y57700D01*
Y47700D02*
X96700Y49300D01*
X98300D01*
X97500Y47700D01*
Y67700D02*
X96700Y69300D01*
X98300D01*
X97500Y67700D01*
X187500Y87700D02*
X186700Y89300D01*
X188300D01*
X187500Y87700D01*
Y77700D02*
X186700Y79300D01*
X188300D01*
X187500Y77700D01*
Y97700D02*
X186700Y99300D01*
X188300D01*
X187500Y97700D01*
X97500D02*
X96700Y99300D01*
X98300D01*
X97500Y97700D01*
Y87700D02*
X96700Y89300D01*
X98300D01*
X97500Y87700D01*
Y77700D02*
X96700Y79300D01*
X98300D01*
X97500Y77700D01*
X218200Y121200D02*
Y122800D01*
X219800D01*
Y121200D01*
X218200D01*
X208200D02*
Y122800D01*
X209800D01*
Y121200D01*
X208200D01*
X228200D02*
Y122800D01*
X229800D01*
Y121200D01*
X228200D01*
X251700D02*
Y122800D01*
X253300D01*
Y121200D01*
X251700D01*
X241700D02*
Y122800D01*
X243300D01*
Y121200D01*
X241700D01*
X261700D02*
Y122800D01*
X263300D01*
Y121200D01*
X261700D01*
X285700D02*
Y122800D01*
X287300D01*
Y121200D01*
X285700D01*
X275700D02*
Y122800D01*
X277300D01*
Y121200D01*
X275700D01*
X295700D02*
Y122800D01*
X297300D01*
Y121200D01*
X295700D01*
X323700Y21200D02*
Y22800D01*
X325300D01*
Y21200D01*
X323700D01*
X313700D02*
Y22800D01*
X315300D01*
Y21200D01*
X313700D01*
X333700D02*
Y22800D01*
X335300D01*
Y21200D01*
X333700D01*
X347500Y95893D02*
X347900Y96293D01*
X348300D01*
X347900Y96693D01*
X348300Y97093D01*
X347900D01*
X347500Y97493D01*
X347100Y97093D01*
X346700D01*
X347100Y96693D01*
X346700Y96293D01*
X347100D01*
X347500Y95893D01*
Y82507D02*
X347900Y82907D01*
X348300D01*
X347900Y83307D01*
X348300Y83707D01*
X347900D01*
X347500Y84107D01*
X347100Y83707D01*
X346700D01*
X347100Y83307D01*
X346700Y82907D01*
X347100D01*
X347500Y82507D01*
X274700Y21200D02*
X275100Y22000D01*
X274700Y22800D01*
X275500Y22400D01*
X276300Y22800D01*
X275900Y22000D01*
X276300Y21200D01*
X275500Y21600D01*
X274700Y21200D01*
X284700D02*
X285100Y22000D01*
X284700Y22800D01*
X285500Y22400D01*
X286300Y22800D01*
X285900Y22000D01*
X286300Y21200D01*
X285500Y21600D01*
X284700Y21200D01*
X264700D02*
X265100Y22000D01*
X264700Y22800D01*
X265500Y22400D01*
X266300Y22800D01*
X265900Y22000D01*
X266300Y21200D01*
X265500Y21600D01*
X264700Y21200D01*
X294700D02*
X295100Y22000D01*
X294700Y22800D01*
X295500Y22400D01*
X296300Y22800D01*
X295900Y22000D01*
X296300Y21200D01*
X295500Y21600D01*
X294700Y21200D01*
X254700D02*
X255100Y22000D01*
X254700Y22800D01*
X255500Y22400D01*
X256300Y22800D01*
X255900Y22000D01*
X256300Y21200D01*
X255500Y21600D01*
X254700Y21200D01*
X76100Y85100D02*
Y84700D01*
X76900D01*
Y85100D01*
X77300D01*
Y85900D01*
X76900D01*
Y86300D01*
X76100D01*
Y85900D01*
X75700D01*
Y85100D01*
X76100D01*
Y75100D02*
Y74700D01*
X76900D01*
Y75100D01*
X77300D01*
Y75900D01*
X76900D01*
Y76300D01*
X76100D01*
Y75900D01*
X75700D01*
Y75100D01*
X76100D01*
Y95100D02*
Y94700D01*
X76900D01*
Y95100D01*
X77300D01*
Y95900D01*
X76900D01*
Y96300D01*
X76100D01*
Y95900D01*
X75700D01*
Y95100D01*
X76100D01*
Y105100D02*
Y104700D01*
X76900D01*
Y105100D01*
X77300D01*
Y105900D01*
X76900D01*
Y106300D01*
X76100D01*
Y105900D01*
X75700D01*
Y105100D01*
X76100D01*
X217100Y21600D02*
Y21200D01*
X217900D01*
Y21600D01*
X218300D01*
Y22400D01*
X217900D01*
Y22800D01*
X217100D01*
Y22400D01*
X216700D01*
Y21600D01*
X217100D01*
X207100D02*
Y21200D01*
X207900D01*
Y21600D01*
X208300D01*
Y22400D01*
X207900D01*
Y22800D01*
X207100D01*
Y22400D01*
X206700D01*
Y21600D01*
X207100D01*
X227100D02*
Y21200D01*
X227900D01*
Y21600D01*
X228300D01*
Y22400D01*
X227900D01*
Y22800D01*
X227100D01*
Y22400D01*
X226700D01*
Y21600D01*
X227100D01*
X237100D02*
Y21200D01*
X237900D01*
Y21600D01*
X238300D01*
Y22400D01*
X237900D01*
Y22800D01*
X237100D01*
Y22400D01*
X236700D01*
Y21600D01*
X237100D01*
X46700Y104608D02*
X47100D01*
X47500Y105008D01*
X47900Y104608D01*
X48300D01*
Y105008D01*
X47900Y105408D01*
X48300Y105808D01*
Y106208D01*
X47900D01*
X47500Y105808D01*
X47100Y106208D01*
X46700D01*
Y105808D01*
X47100Y105408D01*
X46700Y105008D01*
Y104608D01*
Y80200D02*
X47100D01*
X47500Y80600D01*
X47900Y80200D01*
X48300D01*
Y80600D01*
X47900Y81000D01*
X48300Y81400D01*
Y81800D01*
X47900D01*
X47500Y81400D01*
X47100Y81800D01*
X46700D01*
Y81400D01*
X47100Y81000D01*
X46700Y80600D01*
Y80200D01*
X28195Y92010D02*
X28595D01*
X28995Y92410D01*
X29395Y92010D01*
X29795D01*
Y92410D01*
X29395Y92810D01*
X29795Y93210D01*
Y93610D01*
X29395D01*
X28995Y93210D01*
X28595Y93610D01*
X28195D01*
Y93210D01*
X28595Y92810D01*
X28195Y92410D01*
Y92010D01*
X236500Y104700D02*
X236900Y105100D01*
X237300D01*
X236900Y105500D01*
X237300Y105900D01*
X236900D01*
X236500Y106300D01*
X236100Y105900D01*
X235700D01*
X236100Y105500D01*
X235700Y105100D01*
X236100D01*
X236500Y104700D01*
X197200Y38500D02*
X198000Y39300D01*
X198800Y38500D01*
X198000Y37700D01*
X197200Y38500D01*
X197700Y78500D02*
X198500Y79300D01*
X199300Y78500D01*
X198500Y77700D01*
X197700Y78500D01*
X230200Y65500D02*
X231000Y66300D01*
X231800Y65500D01*
X231000Y64700D01*
X230200Y65500D01*
D49*
X255300Y107500D02*
G03*
X255300Y107500I-800J0D01*
G01*
Y97500D02*
G03*
X255300Y97500I-800J0D01*
G01*
Y87500D02*
G03*
X255300Y87500I-800J0D01*
G01*
Y77500D02*
G03*
X255300Y77500I-800J0D01*
G01*
Y67500D02*
G03*
X255300Y67500I-800J0D01*
G01*
Y57500D02*
G03*
X255300Y57500I-800J0D01*
G01*
Y47500D02*
G03*
X255300Y47500I-800J0D01*
G01*
Y37500D02*
G03*
X255300Y37500I-800J0D01*
G01*
X325300Y107500D02*
G03*
X325300Y107500I-800J0D01*
G01*
Y97500D02*
G03*
X325300Y97500I-800J0D01*
G01*
Y87500D02*
G03*
X325300Y87500I-800J0D01*
G01*
Y77500D02*
G03*
X325300Y77500I-800J0D01*
G01*
Y67500D02*
G03*
X325300Y67500I-800J0D01*
G01*
Y57500D02*
G03*
X325300Y57500I-800J0D01*
G01*
Y47500D02*
G03*
X325300Y47500I-800J0D01*
G01*
Y37500D02*
G03*
X325300Y37500I-800J0D01*
G01*
M02*
