G04*
G04 #@! TF.GenerationSoftware,Altium Limited,Altium Designer,21.7.2 (23)*
G04*
G04 Layer_Physical_Order=2*
G04 Layer_Color=16711680*
%FSLAX25Y25*%
%MOIN*%
G70*
G04*
G04 #@! TF.SameCoordinates,6DFCDF27-08A9-4E5E-AB17-D276871F0FC1*
G04*
G04*
G04 #@! TF.FilePolarity,Positive*
G04*
G01*
G75*
%ADD11C,0.00600*%
%ADD25C,0.07000*%
%ADD32C,0.01200*%
%ADD33C,0.03000*%
%ADD34C,0.07087*%
%ADD35R,0.07087X0.07087*%
%ADD36R,0.07000X0.07000*%
%ADD37R,0.12960X0.07200*%
%ADD38R,0.06200X0.07087*%
%ADD39C,0.06000*%
%ADD40C,0.06200*%
%ADD41R,0.06200X0.06200*%
%ADD42C,0.06693*%
%ADD43R,0.06693X0.06693*%
%ADD44R,0.06693X0.06693*%
%ADD45O,0.18110X0.07874*%
%ADD46O,0.07874X0.18110*%
%ADD47C,0.02362*%
G36*
X360878Y101583D02*
Y42528D01*
Y14121D01*
X22121D01*
Y129989D01*
X360878D01*
Y101583D01*
D02*
G37*
%LPC*%
G36*
X280200Y126143D02*
X272800D01*
Y117857D01*
X280200D01*
Y126143D01*
D02*
G37*
G36*
X212700D02*
X205300D01*
Y124223D01*
X68203D01*
X67735Y124130D01*
X67338Y123865D01*
X66635Y123162D01*
X66370Y122765D01*
X66277Y122297D01*
Y70007D01*
X35413Y39143D01*
X28857D01*
Y30857D01*
X37143D01*
Y37413D01*
X68365Y68635D01*
X68630Y69032D01*
X68723Y69500D01*
Y121776D01*
X205300D01*
Y117857D01*
X212700D01*
Y126143D01*
D02*
G37*
G36*
X252500Y126179D02*
X251418Y126037D01*
X250411Y125619D01*
X249545Y124955D01*
X248881Y124090D01*
X248463Y123082D01*
X248321Y122000D01*
X248463Y120918D01*
X248881Y119911D01*
X249545Y119045D01*
X250411Y118381D01*
X251418Y117963D01*
X252500Y117821D01*
X253582Y117963D01*
X254590Y118381D01*
X255455Y119045D01*
X256119Y119911D01*
X256537Y120918D01*
X256679Y122000D01*
X256537Y123082D01*
X256119Y124090D01*
X255455Y124955D01*
X254590Y125619D01*
X253582Y126037D01*
X252500Y126179D01*
D02*
G37*
G36*
X219000D02*
X217918Y126037D01*
X216911Y125619D01*
X216045Y124955D01*
X215381Y124090D01*
X214963Y123082D01*
X214821Y122000D01*
X214963Y120918D01*
X215381Y119911D01*
X216045Y119045D01*
X216911Y118381D01*
X217918Y117963D01*
X219000Y117821D01*
X220082Y117963D01*
X221090Y118381D01*
X221955Y119045D01*
X222619Y119911D01*
X223037Y120918D01*
X223179Y122000D01*
X223037Y123082D01*
X222619Y124090D01*
X221955Y124955D01*
X221090Y125619D01*
X220082Y126037D01*
X219000Y126179D01*
D02*
G37*
G36*
X258600Y111600D02*
X250400D01*
Y103400D01*
X258600D01*
Y111600D01*
D02*
G37*
G36*
X324500Y111635D02*
X323430Y111495D01*
X322432Y111081D01*
X321576Y110424D01*
X320919Y109568D01*
X320505Y108570D01*
X320365Y107500D01*
X320505Y106430D01*
X320919Y105432D01*
X321576Y104576D01*
X322432Y103919D01*
X323430Y103506D01*
X324500Y103365D01*
X325570Y103506D01*
X326568Y103919D01*
X327424Y104576D01*
X328081Y105432D01*
X328495Y106430D01*
X328635Y107500D01*
X328495Y108570D01*
X328081Y109568D01*
X327424Y110424D01*
X326568Y111081D01*
X325570Y111495D01*
X324500Y111635D01*
D02*
G37*
G36*
X231688Y111641D02*
X111380D01*
X110561Y111478D01*
X109866Y111014D01*
X101552Y102700D01*
X90420D01*
Y99641D01*
X87757D01*
X86938Y99478D01*
X86243Y99014D01*
X84486Y97257D01*
X84022Y96562D01*
X83859Y95743D01*
Y85887D01*
X77418Y79447D01*
X72553D01*
Y71553D01*
X80446D01*
Y76418D01*
X87514Y83486D01*
X87978Y84181D01*
X88141Y85000D01*
Y94856D01*
X88644Y95359D01*
X90420D01*
Y94300D01*
X104580D01*
Y99672D01*
X112267Y107359D01*
X230801D01*
X232901Y105260D01*
X232993Y104560D01*
X233355Y103684D01*
X233932Y102932D01*
X234684Y102355D01*
X235560Y101993D01*
X236500Y101869D01*
X237440Y101993D01*
X238316Y102355D01*
X239068Y102932D01*
X239645Y103684D01*
X240007Y104560D01*
X240131Y105500D01*
X240007Y106440D01*
X239645Y107316D01*
X239068Y108068D01*
X238316Y108645D01*
X237440Y109007D01*
X236500Y109131D01*
X235560Y109007D01*
X235312Y108904D01*
X233202Y111014D01*
X232508Y111478D01*
X231688Y111641D01*
D02*
G37*
G36*
X76500Y109481D02*
X75470Y109345D01*
X74510Y108947D01*
X73685Y108315D01*
X73053Y107490D01*
X72655Y106530D01*
X72519Y105500D01*
X72655Y104470D01*
X73053Y103510D01*
X73685Y102685D01*
X74510Y102053D01*
X75470Y101655D01*
X76500Y101520D01*
X77530Y101655D01*
X78490Y102053D01*
X79315Y102685D01*
X79947Y103510D01*
X80345Y104470D01*
X80480Y105500D01*
X80345Y106530D01*
X79947Y107490D01*
X79315Y108315D01*
X78490Y108947D01*
X77530Y109345D01*
X76500Y109481D01*
D02*
G37*
G36*
X246200Y126143D02*
X238800D01*
Y117857D01*
X241277D01*
Y102578D01*
X238422Y99724D01*
X194580D01*
Y102700D01*
X180420D01*
Y94300D01*
X194580D01*
Y97277D01*
X238929D01*
X239397Y97370D01*
X239794Y97635D01*
X243365Y101206D01*
X243630Y101603D01*
X243724Y102071D01*
Y117857D01*
X246200D01*
Y126143D01*
D02*
G37*
G36*
X324500Y101635D02*
X323430Y101495D01*
X322432Y101081D01*
X321576Y100424D01*
X320919Y99568D01*
X320505Y98570D01*
X320365Y97500D01*
X320505Y96430D01*
X320919Y95432D01*
X321576Y94576D01*
X322432Y93919D01*
X323430Y93506D01*
X324500Y93365D01*
X325570Y93506D01*
X326568Y93919D01*
X327424Y94576D01*
X328081Y95432D01*
X328495Y96430D01*
X328635Y97500D01*
X328495Y98570D01*
X328081Y99568D01*
X327424Y100424D01*
X326568Y101081D01*
X325570Y101495D01*
X324500Y101635D01*
D02*
G37*
G36*
X254500D02*
X253430Y101495D01*
X252432Y101081D01*
X251576Y100424D01*
X250919Y99568D01*
X250505Y98570D01*
X250365Y97500D01*
X250505Y96430D01*
X250919Y95432D01*
X251576Y94576D01*
X252432Y93919D01*
X253430Y93506D01*
X254500Y93365D01*
X255570Y93506D01*
X256568Y93919D01*
X257424Y94576D01*
X258081Y95432D01*
X258494Y96430D01*
X258635Y97500D01*
X258494Y98570D01*
X258081Y99568D01*
X257424Y100424D01*
X256568Y101081D01*
X255570Y101495D01*
X254500Y101635D01*
D02*
G37*
G36*
X76500Y99480D02*
X75470Y99345D01*
X74510Y98947D01*
X73685Y98315D01*
X73053Y97490D01*
X72655Y96530D01*
X72519Y95500D01*
X72655Y94470D01*
X73053Y93510D01*
X73685Y92685D01*
X74510Y92053D01*
X75470Y91655D01*
X76500Y91519D01*
X77530Y91655D01*
X78490Y92053D01*
X79315Y92685D01*
X79947Y93510D01*
X80345Y94470D01*
X80480Y95500D01*
X80345Y96530D01*
X79947Y97490D01*
X79315Y98315D01*
X78490Y98947D01*
X77530Y99345D01*
X76500Y99480D01*
D02*
G37*
G36*
X194580Y92700D02*
X180420D01*
Y84300D01*
X194580D01*
Y92700D01*
D02*
G37*
G36*
X324500Y91635D02*
X323430Y91495D01*
X322432Y91081D01*
X321576Y90424D01*
X320919Y89568D01*
X320505Y88570D01*
X320365Y87500D01*
X320505Y86430D01*
X320919Y85432D01*
X321576Y84576D01*
X322432Y83919D01*
X323430Y83505D01*
X324500Y83365D01*
X325570Y83505D01*
X326568Y83919D01*
X327424Y84576D01*
X328081Y85432D01*
X328495Y86430D01*
X328635Y87500D01*
X328495Y88570D01*
X328081Y89568D01*
X327424Y90424D01*
X326568Y91081D01*
X325570Y91495D01*
X324500Y91635D01*
D02*
G37*
G36*
X254500D02*
X253430Y91495D01*
X252432Y91081D01*
X251576Y90424D01*
X250919Y89568D01*
X250505Y88570D01*
X250365Y87500D01*
X250505Y86430D01*
X250919Y85432D01*
X251576Y84576D01*
X252432Y83919D01*
X253430Y83505D01*
X254500Y83365D01*
X255570Y83505D01*
X256568Y83919D01*
X257424Y84576D01*
X258081Y85432D01*
X258494Y86430D01*
X258635Y87500D01*
X258494Y88570D01*
X258081Y89568D01*
X257424Y90424D01*
X256568Y91081D01*
X255570Y91495D01*
X254500Y91635D01*
D02*
G37*
G36*
X347500Y100324D02*
X346560Y100200D01*
X345685Y99838D01*
X344933Y99261D01*
X344355Y98509D01*
X343993Y97633D01*
X343869Y96693D01*
X343993Y95753D01*
X344355Y94877D01*
X344933Y94125D01*
X345685Y93548D01*
X346560Y93186D01*
X347500Y93062D01*
X348440Y93186D01*
X349032Y93431D01*
X352777Y89686D01*
Y30507D01*
X352493Y30224D01*
X325397D01*
X325206Y30685D01*
X340649Y46129D01*
X340848Y46426D01*
X340918Y46777D01*
Y75427D01*
X345667Y80176D01*
X345685Y80162D01*
X346560Y79800D01*
X347500Y79676D01*
X348440Y79800D01*
X349316Y80162D01*
X350067Y80739D01*
X350645Y81492D01*
X351007Y82367D01*
X351131Y83307D01*
X351007Y84247D01*
X350645Y85123D01*
X350067Y85874D01*
X349316Y86452D01*
X348440Y86814D01*
X347500Y86938D01*
X346560Y86814D01*
X345685Y86452D01*
X344933Y85874D01*
X344355Y85123D01*
X343993Y84247D01*
X343869Y83307D01*
X343993Y82367D01*
X344355Y81492D01*
X344369Y81474D01*
X339351Y76456D01*
X339152Y76158D01*
X339082Y75807D01*
Y47158D01*
X329066Y37141D01*
X328617Y37362D01*
X328635Y37500D01*
X328495Y38570D01*
X328081Y39568D01*
X327424Y40424D01*
X326568Y41081D01*
X325570Y41495D01*
X324500Y41635D01*
X323430Y41495D01*
X322432Y41081D01*
X321576Y40424D01*
X320919Y39568D01*
X320505Y38570D01*
X320365Y37500D01*
X320505Y36430D01*
X320919Y35432D01*
X321576Y34576D01*
X322432Y33919D01*
X323430Y33505D01*
X324500Y33365D01*
X324638Y33383D01*
X324859Y32934D01*
X323342Y31418D01*
X206380D01*
X199730Y38068D01*
X199816Y38500D01*
X199678Y39195D01*
X199284Y39784D01*
X198695Y40178D01*
X198000Y40316D01*
X197305Y40178D01*
X196716Y39784D01*
X196322Y39195D01*
X196184Y38500D01*
X196322Y37805D01*
X196716Y37216D01*
X197305Y36822D01*
X198000Y36684D01*
X198432Y36770D01*
X205351Y29851D01*
X205649Y29652D01*
X206000Y29582D01*
X305699D01*
X305890Y29120D01*
X299993Y23223D01*
X299200D01*
Y25700D01*
X291800D01*
Y18300D01*
X299200D01*
Y20776D01*
X300500D01*
X300968Y20870D01*
X301365Y21135D01*
X308007Y27777D01*
X353000D01*
X353468Y27870D01*
X353865Y28135D01*
X354865Y29135D01*
X355130Y29532D01*
X355223Y30000D01*
Y90193D01*
X355130Y90661D01*
X354865Y91058D01*
X350762Y95161D01*
X351007Y95753D01*
X351131Y96693D01*
X351007Y97633D01*
X350645Y98509D01*
X350067Y99261D01*
X349316Y99838D01*
X348440Y100200D01*
X347500Y100324D01*
D02*
G37*
G36*
X52618Y85576D02*
X42382D01*
X41197Y85420D01*
X40094Y84963D01*
X39146Y84236D01*
X38419Y83288D01*
X37962Y82184D01*
X37806Y81000D01*
X37962Y79816D01*
X38419Y78712D01*
X39146Y77764D01*
X40094Y77037D01*
X41197Y76580D01*
X42382Y76424D01*
X52618D01*
X53803Y76580D01*
X54906Y77037D01*
X55854Y77764D01*
X56581Y78712D01*
X57038Y79816D01*
X57194Y81000D01*
X57038Y82184D01*
X56581Y83288D01*
X55854Y84236D01*
X54906Y84963D01*
X53803Y85420D01*
X52618Y85576D01*
D02*
G37*
G36*
X194580Y82700D02*
X180420D01*
Y74300D01*
X194580D01*
Y82700D01*
D02*
G37*
G36*
X104580D02*
X90420D01*
Y74300D01*
X104580D01*
Y82700D01*
D02*
G37*
G36*
X324500Y81635D02*
X323430Y81494D01*
X322432Y81081D01*
X321576Y80424D01*
X320919Y79568D01*
X320505Y78570D01*
X320365Y77500D01*
X320505Y76430D01*
X320919Y75432D01*
X321576Y74576D01*
X322432Y73919D01*
X323430Y73506D01*
X324500Y73365D01*
X325570Y73506D01*
X326568Y73919D01*
X327424Y74576D01*
X328081Y75432D01*
X328495Y76430D01*
X328635Y77500D01*
X328495Y78570D01*
X328081Y79568D01*
X327424Y80424D01*
X326568Y81081D01*
X325570Y81494D01*
X324500Y81635D01*
D02*
G37*
G36*
X254500D02*
X253430Y81494D01*
X252432Y81081D01*
X251576Y80424D01*
X250919Y79568D01*
X250505Y78570D01*
X250365Y77500D01*
X250505Y76430D01*
X250919Y75432D01*
X251576Y74576D01*
X252432Y73919D01*
X253430Y73506D01*
X254500Y73365D01*
X255570Y73506D01*
X256568Y73919D01*
X257424Y74576D01*
X258081Y75432D01*
X258494Y76430D01*
X258635Y77500D01*
X258494Y78570D01*
X258081Y79568D01*
X257424Y80424D01*
X256568Y81081D01*
X255570Y81494D01*
X254500Y81635D01*
D02*
G37*
G36*
X104580Y72700D02*
X90420D01*
Y64300D01*
X104580D01*
Y72700D01*
D02*
G37*
G36*
X198500Y80316D02*
X197805Y80178D01*
X197216Y79784D01*
X196822Y79195D01*
X196684Y78500D01*
X196822Y77805D01*
X197216Y77216D01*
X197805Y76822D01*
X198500Y76684D01*
X199195Y76822D01*
X199784Y77216D01*
X200029Y77582D01*
X217620D01*
X229270Y65932D01*
X229184Y65500D01*
X229322Y64805D01*
X229716Y64216D01*
X230305Y63822D01*
X231000Y63684D01*
X231695Y63822D01*
X232284Y64216D01*
X232678Y64805D01*
X232816Y65500D01*
X232678Y66195D01*
X232284Y66784D01*
X231695Y67178D01*
X231000Y67316D01*
X230568Y67230D01*
X218649Y79149D01*
X218351Y79348D01*
X218000Y79418D01*
X200029D01*
X199784Y79784D01*
X199195Y80178D01*
X198500Y80316D01*
D02*
G37*
G36*
X324500Y71635D02*
X323430Y71495D01*
X322432Y71081D01*
X321576Y70424D01*
X320919Y69568D01*
X320505Y68570D01*
X320365Y67500D01*
X320505Y66430D01*
X320919Y65432D01*
X321576Y64576D01*
X322432Y63919D01*
X323430Y63506D01*
X324500Y63365D01*
X325570Y63506D01*
X326568Y63919D01*
X327424Y64576D01*
X328081Y65432D01*
X328495Y66430D01*
X328635Y67500D01*
X328495Y68570D01*
X328081Y69568D01*
X327424Y70424D01*
X326568Y71081D01*
X325570Y71495D01*
X324500Y71635D01*
D02*
G37*
G36*
X254500D02*
X253430Y71495D01*
X252432Y71081D01*
X251576Y70424D01*
X250919Y69568D01*
X250505Y68570D01*
X250365Y67500D01*
X250505Y66430D01*
X250919Y65432D01*
X251576Y64576D01*
X252432Y63919D01*
X253430Y63506D01*
X254500Y63365D01*
X255570Y63506D01*
X256568Y63919D01*
X257424Y64576D01*
X258081Y65432D01*
X258494Y66430D01*
X258635Y67500D01*
X258494Y68570D01*
X258081Y69568D01*
X257424Y70424D01*
X256568Y71081D01*
X255570Y71495D01*
X254500Y71635D01*
D02*
G37*
G36*
X37143Y64643D02*
X28857D01*
Y56357D01*
X37143D01*
Y64643D01*
D02*
G37*
G36*
X324500Y61635D02*
X323430Y61494D01*
X322432Y61081D01*
X321576Y60424D01*
X320919Y59568D01*
X320505Y58570D01*
X320365Y57500D01*
X320505Y56430D01*
X320919Y55432D01*
X321576Y54576D01*
X322432Y53919D01*
X323430Y53505D01*
X324500Y53365D01*
X325570Y53505D01*
X326568Y53919D01*
X327424Y54576D01*
X328081Y55432D01*
X328495Y56430D01*
X328635Y57500D01*
X328495Y58570D01*
X328081Y59568D01*
X327424Y60424D01*
X326568Y61081D01*
X325570Y61494D01*
X324500Y61635D01*
D02*
G37*
G36*
X254500D02*
X253430Y61494D01*
X252432Y61081D01*
X251576Y60424D01*
X250919Y59568D01*
X250505Y58570D01*
X250365Y57500D01*
X250505Y56430D01*
X250919Y55432D01*
X251576Y54576D01*
X252432Y53919D01*
X253430Y53505D01*
X254500Y53365D01*
X255570Y53505D01*
X256568Y53919D01*
X257424Y54576D01*
X258081Y55432D01*
X258494Y56430D01*
X258635Y57500D01*
X258494Y58570D01*
X258081Y59568D01*
X257424Y60424D01*
X256568Y61081D01*
X255570Y61494D01*
X254500Y61635D01*
D02*
G37*
G36*
X286500Y126179D02*
X285418Y126037D01*
X284411Y125619D01*
X283545Y124955D01*
X282881Y124090D01*
X282463Y123082D01*
X282321Y122000D01*
X282463Y120918D01*
X282881Y119911D01*
X283545Y119045D01*
X284411Y118381D01*
X285093Y118098D01*
X285210Y117508D01*
X282620Y114918D01*
X247044D01*
X246693Y114848D01*
X246395Y114649D01*
X246044Y114297D01*
X245845Y114000D01*
X245775Y113648D01*
Y72073D01*
X223120Y49418D01*
X194580D01*
Y52700D01*
X180420D01*
Y44300D01*
X194580D01*
Y47582D01*
X223500D01*
X223851Y47652D01*
X224149Y47851D01*
X247341Y71044D01*
X247540Y71341D01*
X247610Y71693D01*
Y113082D01*
X283000D01*
X283351Y113152D01*
X283649Y113351D01*
X287149Y116851D01*
X287348Y117149D01*
X287418Y117500D01*
Y117942D01*
X287582Y117963D01*
X288590Y118381D01*
X289455Y119045D01*
X290119Y119911D01*
X290537Y120918D01*
X290679Y122000D01*
X290537Y123082D01*
X290119Y124090D01*
X289455Y124955D01*
X288590Y125619D01*
X287582Y126037D01*
X286500Y126179D01*
D02*
G37*
G36*
X239000Y55179D02*
X237918Y55037D01*
X236911Y54619D01*
X236045Y53955D01*
X235381Y53089D01*
X234963Y52082D01*
X234821Y51000D01*
X234963Y49918D01*
X235381Y48910D01*
X236045Y48045D01*
X236911Y47381D01*
X237918Y46963D01*
X239000Y46821D01*
X240082Y46963D01*
X241090Y47381D01*
X241955Y48045D01*
X242619Y48910D01*
X243037Y49918D01*
X243179Y51000D01*
X243037Y52082D01*
X242619Y53089D01*
X241955Y53955D01*
X241090Y54619D01*
X240082Y55037D01*
X239000Y55179D01*
D02*
G37*
G36*
X243143Y45143D02*
X234857D01*
Y36857D01*
X243143D01*
Y45143D01*
D02*
G37*
G36*
X194580Y42700D02*
X180420D01*
Y34300D01*
X194580D01*
Y42700D01*
D02*
G37*
G36*
X104580D02*
X90420D01*
Y34300D01*
X104580D01*
Y42700D01*
D02*
G37*
G36*
X254500Y41635D02*
X253430Y41495D01*
X252432Y41081D01*
X251576Y40424D01*
X250919Y39568D01*
X250505Y38570D01*
X250365Y37500D01*
X250505Y36430D01*
X250919Y35432D01*
X251576Y34576D01*
X252432Y33919D01*
X253430Y33505D01*
X254500Y33365D01*
X255570Y33505D01*
X256568Y33919D01*
X257424Y34576D01*
X258081Y35432D01*
X258494Y36430D01*
X258635Y37500D01*
X258494Y38570D01*
X258081Y39568D01*
X257424Y40424D01*
X256568Y41081D01*
X255570Y41495D01*
X254500Y41635D01*
D02*
G37*
G36*
X104580Y32700D02*
X90420D01*
Y24300D01*
X104580D01*
Y32700D01*
D02*
G37*
G36*
X275500Y25732D02*
X274534Y25605D01*
X273634Y25232D01*
X272861Y24639D01*
X272268Y23866D01*
X271895Y22966D01*
X271768Y22000D01*
X271895Y21034D01*
X272268Y20134D01*
X272861Y19361D01*
X273634Y18768D01*
X274534Y18395D01*
X275500Y18268D01*
X276466Y18395D01*
X277366Y18768D01*
X278139Y19361D01*
X278732Y20134D01*
X279105Y21034D01*
X279232Y22000D01*
X279105Y22966D01*
X278732Y23866D01*
X278139Y24639D01*
X277366Y25232D01*
X276466Y25605D01*
X275500Y25732D01*
D02*
G37*
G36*
X265500D02*
X264534Y25605D01*
X263634Y25232D01*
X262861Y24639D01*
X262268Y23866D01*
X261895Y22966D01*
X261768Y22000D01*
X261895Y21034D01*
X262268Y20134D01*
X262861Y19361D01*
X263634Y18768D01*
X264534Y18395D01*
X265500Y18268D01*
X266466Y18395D01*
X267366Y18768D01*
X268139Y19361D01*
X268732Y20134D01*
X269105Y21034D01*
X269232Y22000D01*
X269105Y22966D01*
X268732Y23866D01*
X268139Y24639D01*
X267366Y25232D01*
X266466Y25605D01*
X265500Y25732D01*
D02*
G37*
G36*
X194580Y72700D02*
X180420D01*
Y65598D01*
X173351Y58529D01*
X173152Y58231D01*
X173082Y57880D01*
Y30647D01*
X173152Y30296D01*
X173351Y29998D01*
X185416Y17933D01*
X185225Y17471D01*
X142707D01*
X104580Y55598D01*
Y62700D01*
X90420D01*
Y54300D01*
X103282D01*
X104382Y53200D01*
X104175Y52700D01*
X90420D01*
Y44300D01*
X104580D01*
Y52295D01*
X105080Y52502D01*
X141678Y15905D01*
X141975Y15706D01*
X142326Y15636D01*
X319054D01*
X319405Y15706D01*
X319702Y15905D01*
X322279Y18482D01*
X322410Y18381D01*
X323418Y17963D01*
X324500Y17821D01*
X325582Y17963D01*
X326589Y18381D01*
X327455Y19045D01*
X328119Y19910D01*
X328537Y20918D01*
X328679Y22000D01*
X328537Y23082D01*
X328119Y24090D01*
X327455Y24955D01*
X326589Y25619D01*
X325582Y26037D01*
X324500Y26179D01*
X323418Y26037D01*
X322410Y25619D01*
X321545Y24955D01*
X320881Y24090D01*
X320463Y23082D01*
X320321Y22000D01*
X320463Y20918D01*
X320881Y19910D01*
X320982Y19779D01*
X318898Y17696D01*
X318284Y17739D01*
X318200Y17857D01*
X318200Y17971D01*
Y26143D01*
X310800D01*
Y17971D01*
X310800Y17857D01*
X310524Y17471D01*
X254317D01*
X254126Y17933D01*
X254582Y18389D01*
X255500Y18268D01*
X256466Y18395D01*
X257366Y18768D01*
X258139Y19361D01*
X258732Y20134D01*
X259105Y21034D01*
X259232Y22000D01*
X259105Y22966D01*
X258732Y23866D01*
X258139Y24639D01*
X257366Y25232D01*
X256466Y25605D01*
X255500Y25732D01*
X254534Y25605D01*
X253634Y25232D01*
X252861Y24639D01*
X252268Y23866D01*
X251895Y22966D01*
X251768Y22000D01*
X251895Y21034D01*
X252268Y20134D01*
X252861Y19361D01*
X252867Y19270D01*
X252268Y18671D01*
X240422D01*
X240262Y19145D01*
X240315Y19185D01*
X240947Y20010D01*
X241345Y20970D01*
X241480Y22000D01*
X241345Y23030D01*
X240947Y23990D01*
X240315Y24815D01*
X239490Y25447D01*
X238530Y25845D01*
X237500Y25980D01*
X236470Y25845D01*
X235510Y25447D01*
X234685Y24815D01*
X234053Y23990D01*
X233655Y23030D01*
X233520Y22000D01*
X233655Y20970D01*
X234053Y20010D01*
X234685Y19185D01*
X234738Y19145D01*
X234578Y18671D01*
X230422D01*
X230262Y19145D01*
X230315Y19185D01*
X230947Y20010D01*
X231345Y20970D01*
X231481Y22000D01*
X231345Y23030D01*
X230947Y23990D01*
X230315Y24815D01*
X229490Y25447D01*
X228530Y25845D01*
X227500Y25980D01*
X226470Y25845D01*
X225510Y25447D01*
X224685Y24815D01*
X224053Y23990D01*
X223655Y23030D01*
X223519Y22000D01*
X223655Y20970D01*
X224053Y20010D01*
X224685Y19185D01*
X224738Y19145D01*
X224578Y18671D01*
X220422D01*
X220262Y19145D01*
X220315Y19185D01*
X220947Y20010D01*
X221345Y20970D01*
X221480Y22000D01*
X221345Y23030D01*
X220947Y23990D01*
X220315Y24815D01*
X219490Y25447D01*
X218530Y25845D01*
X217500Y25980D01*
X216470Y25845D01*
X215510Y25447D01*
X214685Y24815D01*
X214053Y23990D01*
X213655Y23030D01*
X213520Y22000D01*
X213655Y20970D01*
X214053Y20010D01*
X214685Y19185D01*
X214738Y19145D01*
X214578Y18671D01*
X187274D01*
X182107Y23838D01*
X182298Y24300D01*
X194580D01*
Y32700D01*
X180420D01*
Y26178D01*
X179958Y25987D01*
X174918Y31027D01*
Y57500D01*
X179920Y62502D01*
X180420Y62295D01*
Y54300D01*
X194580D01*
Y62700D01*
X180825D01*
X180618Y63200D01*
X181718Y64300D01*
X194580D01*
Y72700D01*
D02*
G37*
%LPD*%
D11*
X206000Y30500D02*
X323723D01*
X198000Y38500D02*
X206000Y30500D01*
X323723D02*
X340000Y46777D01*
X246693Y113648D02*
X247044Y114000D01*
X283000D01*
X246693Y71693D02*
Y113648D01*
X223500Y48500D02*
X246693Y71693D01*
X97500Y58500D02*
X100380D01*
X142326Y16554D01*
X319054D01*
X324500Y22000D01*
X174000Y30647D02*
X186894Y17754D01*
X252648D01*
X174000Y30647D02*
Y57880D01*
X252648Y17754D02*
X255500Y20605D01*
Y22000D01*
X286500Y117500D02*
Y122000D01*
X283000Y114000D02*
X286500Y117500D01*
X187500Y48500D02*
X223500D01*
X181320Y65200D02*
Y65200D01*
X174000Y57880D02*
X181320Y65200D01*
Y65200D02*
X184620Y68500D01*
X187500D01*
X340000Y46777D02*
Y75807D01*
X347500Y83307D01*
X198500Y78500D02*
X218000D01*
X231000Y65500D01*
D25*
X254500Y97500D02*
D03*
Y87500D02*
D03*
Y77500D02*
D03*
Y67500D02*
D03*
Y57500D02*
D03*
Y47500D02*
D03*
Y37500D02*
D03*
X324500Y107500D02*
D03*
Y97500D02*
D03*
Y87500D02*
D03*
Y77500D02*
D03*
Y67500D02*
D03*
Y57500D02*
D03*
Y47500D02*
D03*
Y37500D02*
D03*
D32*
X347500Y96693D02*
X354000Y90193D01*
Y30000D02*
Y90193D01*
X307500Y29000D02*
X353000D01*
X354000Y30000D01*
X300500Y22000D02*
X307500Y29000D01*
X295500Y22000D02*
X300500D01*
X67500Y122297D02*
X68203Y123000D01*
X67500Y69500D02*
Y122297D01*
X208000Y123000D02*
X209000Y122000D01*
X68203Y123000D02*
X208000D01*
X33000Y35000D02*
X67500Y69500D01*
X238929Y98500D02*
X242500Y102071D01*
Y122000D01*
X187500Y98500D02*
X238929D01*
D33*
X111380Y109500D02*
X231688D01*
X235688Y105500D02*
X236500D01*
X231688Y109500D02*
X235688Y105500D01*
X100380Y98500D02*
X111380Y109500D01*
X97500Y98500D02*
X100380D01*
X96500Y97500D02*
X97500Y98500D01*
X86000Y85000D02*
Y95743D01*
X87757Y97500D02*
X96500D01*
X86000Y95743D02*
X87757Y97500D01*
X76500Y75500D02*
X86000Y85000D01*
D34*
X239000Y51000D02*
D03*
X33000Y25000D02*
D03*
Y50500D02*
D03*
X219000Y122000D02*
D03*
X229000D02*
D03*
X252500D02*
D03*
X262500D02*
D03*
X286500D02*
D03*
X296500D02*
D03*
X324500Y22000D02*
D03*
X334500D02*
D03*
D35*
X239000Y41000D02*
D03*
X33000Y35000D02*
D03*
Y60500D02*
D03*
D36*
X254500Y107500D02*
D03*
D37*
X187500Y28500D02*
D03*
Y48500D02*
D03*
Y38500D02*
D03*
Y58500D02*
D03*
Y68500D02*
D03*
X97500Y38500D02*
D03*
Y28500D02*
D03*
Y58500D02*
D03*
Y48500D02*
D03*
Y68500D02*
D03*
X187500Y88500D02*
D03*
Y78500D02*
D03*
Y98500D02*
D03*
X97500D02*
D03*
Y88500D02*
D03*
Y78500D02*
D03*
D38*
X209000Y122000D02*
D03*
X242500D02*
D03*
X276500D02*
D03*
X314500Y22000D02*
D03*
D39*
X347500Y96693D02*
D03*
Y83307D02*
D03*
X236500Y105500D02*
D03*
D40*
X275500Y22000D02*
D03*
X285500D02*
D03*
X265500D02*
D03*
X255500D02*
D03*
D41*
X295500D02*
D03*
D42*
X76500Y85500D02*
D03*
Y95500D02*
D03*
Y105500D02*
D03*
X217500Y22000D02*
D03*
X227500D02*
D03*
X237500D02*
D03*
D43*
X76500Y75500D02*
D03*
D44*
X207500Y22000D02*
D03*
D45*
X47500Y105408D02*
D03*
Y81000D02*
D03*
D46*
X28995Y92810D02*
D03*
D47*
X198000Y38500D02*
D03*
X198500Y78500D02*
D03*
X231000Y65500D02*
D03*
M02*
