M48
;Layer_Color=9474304
;FILE_FORMAT=2:5
INCH,LZ
;TYPE=PLATED
T1F00S00C0.01181
T2F00S00C0.03000
T3F00S00C0.03600
T4F00S00C0.04000
T5F00S00C0.04016
T6F00S00C0.04331
T7F00S00C0.04724
%
T01
X0198Y00385
X01985Y00785
X0231Y00655
T02
X03475Y0083307
Y0096693
X02365Y01055
T03
X03245Y00375
Y00475
Y00575
Y00675
Y00775
Y00875
Y00975
Y01075
X02545
Y00975
Y00875
Y00775
Y00675
Y00575
Y00475
Y00375
T04
X01875Y00285
Y00385
Y00485
Y00585
Y00685
Y00785
Y00885
Y00985
X00975
Y00885
Y00785
Y00685
Y00585
Y00485
Y00385
Y00285
T05
X02555Y0022
X02655
X02755
X02855
X02955
T06
X02075Y0022
X02175
X02275
X02375
X00765Y00755
Y00855
Y00955
Y01055
T07
X03145Y0022
X03245
X03345
X0239Y0041
Y0051
X02425Y0122
X02525
X02625
X02765
X02865
X02965
X0229
X0219
X0209
X0033Y00605
Y00505
Y0035
Y0025
M30
