G04*
G04 #@! TF.GenerationSoftware,Altium Limited,Altium Designer,21.7.2 (23)*
G04*
G04 Layer_Color=8388736*
%FSLAX25Y25*%
%MOIN*%
G70*
G04*
G04 #@! TF.SameCoordinates,6DFCDF27-08A9-4E5E-AB17-D276871F0FC1*
G04*
G04*
G04 #@! TF.FilePolarity,Negative*
G04*
G01*
G75*
%ADD16R,0.06221X0.05259*%
%ADD17R,0.05524X0.14580*%
%ADD18C,0.07887*%
%ADD19R,0.07887X0.07887*%
%ADD20R,0.07800X0.07800*%
%ADD21C,0.07800*%
%ADD22R,0.13760X0.08000*%
%ADD23R,0.07000X0.07887*%
%ADD24C,0.06800*%
%ADD25C,0.07000*%
%ADD26R,0.07000X0.07000*%
%ADD27C,0.07493*%
%ADD28R,0.07493X0.07493*%
%ADD29R,0.07493X0.07493*%
%ADD30O,0.18910X0.08674*%
%ADD31O,0.08674X0.18910*%
D16*
X347411Y60571D02*
D03*
Y52962D02*
D03*
X240089Y65429D02*
D03*
Y73038D02*
D03*
Y85929D02*
D03*
Y93538D02*
D03*
D17*
X216000Y102012D02*
D03*
Y80988D02*
D03*
X63000Y58012D02*
D03*
Y36988D02*
D03*
D18*
X239000Y51000D02*
D03*
X33000Y25000D02*
D03*
Y50500D02*
D03*
X219000Y122000D02*
D03*
X229000D02*
D03*
X252500D02*
D03*
X262500D02*
D03*
X286500D02*
D03*
X296500D02*
D03*
X324500Y22000D02*
D03*
X334500D02*
D03*
D19*
X239000Y41000D02*
D03*
X33000Y35000D02*
D03*
Y60500D02*
D03*
D20*
X254500Y107500D02*
D03*
D21*
Y97500D02*
D03*
Y87500D02*
D03*
Y77500D02*
D03*
Y67500D02*
D03*
Y57500D02*
D03*
Y47500D02*
D03*
Y37500D02*
D03*
X324500Y107500D02*
D03*
Y97500D02*
D03*
Y87500D02*
D03*
Y77500D02*
D03*
Y67500D02*
D03*
Y57500D02*
D03*
Y47500D02*
D03*
Y37500D02*
D03*
D22*
X187500Y28500D02*
D03*
Y48500D02*
D03*
Y38500D02*
D03*
Y58500D02*
D03*
Y68500D02*
D03*
X97500Y38500D02*
D03*
Y28500D02*
D03*
Y58500D02*
D03*
Y48500D02*
D03*
Y68500D02*
D03*
X187500Y88500D02*
D03*
Y78500D02*
D03*
Y98500D02*
D03*
X97500D02*
D03*
Y88500D02*
D03*
Y78500D02*
D03*
D23*
X209000Y122000D02*
D03*
X242500D02*
D03*
X276500D02*
D03*
X314500Y22000D02*
D03*
D24*
X347500Y96693D02*
D03*
Y83307D02*
D03*
D25*
X275500Y22000D02*
D03*
X285500D02*
D03*
X265500D02*
D03*
X255500D02*
D03*
D26*
X295500D02*
D03*
D27*
X76500Y85500D02*
D03*
Y95500D02*
D03*
Y105500D02*
D03*
X217500Y22000D02*
D03*
X227500D02*
D03*
X237500D02*
D03*
D28*
X76500Y75500D02*
D03*
D29*
X207500Y22000D02*
D03*
D30*
X47500Y105408D02*
D03*
Y81000D02*
D03*
D31*
X28995Y92810D02*
D03*
M02*
